<?xml version="1.0" encoding="utf-8"?>
<svg viewBox="0 0 24 24" xmlns="http://www.w3.org/2000/svg">
  <!--Generated by AMDN-->
  <g id="Layer 1">
    <path id="Path 1" style="fill:currentColor;fill-opacity:1;fill-rule:nonzero;opacity:1;stroke:none;" d="M24,-1.09141e-09 C24,-1.09141e-09,7.45044e-08,-1.09141e-09,7.45044e-08,-1.09141e-09 C7.45044e-08,8,7.45044e-08,16,7.45044e-08,24 C8,24,16,24,24,24 C24,24,24,-1.09141e-09,24,-1.09141e-09 z M18.6667,13.3333 C16.8889,13.3333,15.1111,13.3333,13.3333,13.3333 C13.3333,15.1111,13.3333,16.8889,13.3333,18.6667 C12.4444,18.6667,11.5556,18.6667,10.6667,18.6667 C10.6667,16.8889,10.6667,15.1111,10.6667,13.3333 C10.6667,13.3333,5.33333,13.3333,5.33333,13.3333 C5.33333,12.4444,5.33333,11.5556,5.33333,10.6667 C7.11111,10.6667,8.88889,10.6667,10.6667,10.6667 C10.6667,10.6667,10.6667,5.33333,10.6667,5.33333 C11.5556,5.33333,12.4444,5.33333,13.3333,5.33333 C13.3333,7.11111,13.3333,8.88889,13.3333,10.6667 C15.1111,10.6667,16.8889,10.6667,18.6667,10.6667 C18.6667,11.5556,18.6667,12.4444,18.6667,13.3333 z"/>
  </g>
</svg>
