<?xml version="1.0" encoding="utf-8"?>
<svg viewBox="0 0 24 24" xmlns="http://www.w3.org/2000/svg">
  <!--Generated by AMDN-->
  <g id="Layer 1">
    <path id="Path 3" style="fill:currentColor;fill-opacity:1;fill-rule:nonzero;opacity:1;stroke:none;" d="M-1.42416e-07,-1.06189e-07 C-1.42416e-07,8,-1.42416e-07,16,-1.42416e-07,24 C8,24,16,24,24,24 C24,24,24,-1.06189e-07,24,-1.06189e-07 C24,-1.06189e-07,-1.42416e-07,-1.06189e-07,-1.42416e-07,-1.06189e-07 z M18.6667,16.7867 C18.6667,16.7867,16.7867,18.6667,16.7867,18.6667 C16.7867,18.6667,12,13.88,12,13.88 C12,13.88,7.21333,18.6667,7.21333,18.6667 C7.21333,18.6667,5.33333,16.7867,5.33333,16.7867 C5.33333,16.7867,10.12,12,10.12,12 C10.12,12,5.33333,7.21333,5.33333,7.21333 C5.33333,7.21333,7.21333,5.33333,7.21333,5.33333 C7.21333,5.33333,12,10.12,12,10.12 C12,10.12,16.7867,5.33333,16.7867,5.33333 C16.7867,5.33333,18.6667,7.21333,18.6667,7.21333 C18.6667,7.21333,13.88,12,13.88,12 C13.88,12,18.6667,16.7867,18.6667,16.7867 z"/>
  </g>
</svg>
